<?xml version="1.0" encoding="UTF-8"?>
<svg version="1.1" xmlns="http://www.w3.org/2000/svg" width="500" height="500">
<path d="M0 0 C165 0 330 0 500 0 C500 165 500 330 500 500 C335 500 170 500 0 500 C0 335 0 170 0 0 Z " fill="#FEFEFE" transform="translate(0,0)"/>
<path d="M0 0 C2.45890589 0.01079759 4.91709141 -0.00001562 7.37597656 -0.01269531 C16.50640345 -0.02122131 25.20198932 0.52851811 34.19628906 2.26074219 C35.0597998 2.4120459 35.92331055 2.56334961 36.81298828 2.71923828 C66.9575758 8.05081219 96.2641446 19.28558421 121.19628906 37.26074219 C122.18886719 37.9684375 123.18144531 38.67613281 124.20410156 39.40527344 C130.36945543 43.90708553 136.08743149 48.72348227 141.67285156 53.92480469 C143.84431796 55.93492373 146.05843696 57.85565326 148.32128906 59.76074219 C167.96398652 76.98282441 182.253051 100.80653766 193.19628906 124.26074219 C193.72867187 125.38480469 194.26105469 126.50886719 194.80957031 127.66699219 C201.13077768 141.64878419 204.97224594 156.31908109 208.00878906 171.32324219 C208.31925171 172.85621948 208.31925171 172.85621948 208.63598633 174.42016602 C213.42273888 199.19236625 211.12079172 223.53138966 207.19628906 248.26074219 C207.05739258 249.20433594 206.91849609 250.14792969 206.77539062 251.12011719 C204.51366391 266.31339586 199.03942443 280.1103378 193.19628906 294.26074219 C189.42763302 293.65984336 185.927306 292.95488445 182.32128906 291.69824219 C181.54011719 291.42882812 180.75894531 291.15941406 179.95410156 290.88183594 C179.08398438 290.57439453 179.08398438 290.57439453 178.19628906 290.26074219 C178.8597475 285.00346394 180.4520921 280.3321515 182.25878906 275.38574219 C182.54044922 274.60199219 182.82210938 273.81824219 183.11230469 273.01074219 C183.80242688 271.09243642 184.49873222 269.176357 185.19628906 267.26074219 C180.57628906 267.26074219 175.95628906 267.26074219 171.19628906 267.26074219 C170.76316406 268.76636719 170.33003906 270.27199219 169.88378906 271.82324219 C168.5957703 276.13503834 167.06373884 280.17013792 165.19628906 284.26074219 C159.73400654 283.60789512 154.9608312 281.83350506 149.86035156 279.88183594 C148.98099945 279.55031021 148.10164734 279.21878448 147.19564819 278.87721252 C144.40221466 277.8227079 141.61174519 276.76059736 138.82128906 275.69824219 C136.92174037 274.97963842 135.02200273 274.26153391 133.12207031 273.54394531 C128.47793506 271.78865206 123.83644209 270.02653421 119.19628906 268.26074219 C123.26803594 279.95682071 127.3822506 291.63113956 131.69433594 303.24121094 C132.18836914 304.58505859 132.18836914 304.58505859 132.69238281 305.95605469 C132.98298584 306.73996582 133.27358887 307.52387695 133.57299805 308.33154297 C134.19628906 310.26074219 134.19628906 310.26074219 134.19628906 312.26074219 C126.56497428 310.29736823 119.17056517 307.92755829 111.75878906 305.26074219 C103.97518752 302.50082223 96.29626112 299.93299448 88.19628906 298.26074219 C88.96312189 291.54490101 90.08025016 284.91553077 91.25878906 278.26074219 C91.44505859 277.19984375 91.63132812 276.13894531 91.82324219 275.04589844 C92.27918355 272.45053991 92.73749467 269.85559789 93.19628906 267.26074219 C87.91628906 267.26074219 82.63628906 267.26074219 77.19628906 267.26074219 C77.11378906 268.76636719 77.03128906 270.27199219 76.94628906 271.82324219 C76.29980639 279.21437241 74.25563938 286.16316737 72.19628906 293.26074219 C63.80047247 292.51426099 55.47799491 291.35220195 47.13659668 290.16195679 C33.84151889 288.26809586 20.56836107 286.5287835 7.19628906 285.26074219 C7.19628906 279.32074219 7.19628906 273.38074219 7.19628906 267.26074219 C2.90628906 267.26074219 -1.38371094 267.26074219 -5.80371094 267.26074219 C-5.80371094 273.20074219 -5.80371094 279.14074219 -5.80371094 285.26074219 C-7.88683594 285.34710938 -9.96996094 285.43347656 -12.11621094 285.52246094 C-32.30860225 286.44353318 -51.89998801 288.75147206 -71.80371094 292.26074219 C-73.45371094 284.01074219 -75.10371094 275.76074219 -76.80371094 267.26074219 C-82.08371094 267.26074219 -87.36371094 267.26074219 -92.80371094 267.26074219 C-92.40152344 268.74574219 -92.40152344 268.74574219 -91.99121094 270.26074219 C-90.9017569 274.62639613 -90.02542518 279.03025312 -89.17871094 283.44824219 C-89.04360107 284.13724609 -88.90849121 284.82625 -88.76928711 285.53613281 C-88.08490797 289.17324484 -87.74409375 292.56805378 -87.80371094 296.26074219 C-88.48135498 296.45595459 -89.15899902 296.65116699 -89.85717773 296.85229492 C-106.45431952 301.67849356 -122.91431033 306.8640255 -138.19433594 315.08496094 C-140.80371094 316.26074219 -140.80371094 316.26074219 -143.80371094 315.26074219 C-149.92651358 307.43499444 -154.53075485 298.31709013 -159.17871094 289.57324219 C-159.69038818 288.62433105 -160.20206543 287.67541992 -160.72924805 286.69775391 C-164.04951079 280.33240353 -166.13023615 274.24493797 -167.80371094 267.26074219 C-172.75371094 267.26074219 -177.70371094 267.26074219 -182.80371094 267.26074219 C-171.61223118 295.44669121 -158.8324924 320.09164403 -137.80371094 342.26074219 C-137.34689941 342.75010254 -136.89008789 343.23946289 -136.41943359 343.74365234 C-107.5600448 374.49954263 -66.72893735 394.53943484 -25.02514648 399.96704102 C-23.1703609 400.21226654 -21.32042095 400.49379024 -19.47216797 400.78417969 C-13.33019462 401.58207214 -7.17579718 401.45811281 -0.99121094 401.44824219 C-0.29708099 401.44763794 0.39704895 401.44703369 1.11221313 401.44641113 C11.92271384 401.42084813 22.51826887 401.04327277 33.19628906 399.26074219 C34.36297119 399.07535889 34.36297119 399.07535889 35.55322266 398.88623047 C77.84720917 391.980919 114.56627501 369.63564486 144.19628906 339.26074219 C145.95546813 341.89951078 147.1254879 344.22153047 148.32128906 347.13574219 C148.67449219 347.97878906 149.02769531 348.82183594 149.39160156 349.69042969 C150.28622757 352.54802151 150.71471941 354.29828303 150.19628906 357.26074219 C148.06347656 359.76855469 148.06347656 359.76855469 145.07128906 362.38574219 C144.53141357 362.85947266 143.99153809 363.33320313 143.43530273 363.82128906 C141.70570285 365.3221426 139.9555314 366.79478797 138.19628906 368.26074219 C137.37040283 368.95441895 137.37040283 368.95441895 136.52783203 369.66210938 C105.24520784 395.70779056 68.25980663 411.15420029 28.19628906 417.26074219 C27.51622803 417.36604248 26.83616699 417.47134277 26.13549805 417.57983398 C3.59957972 420.57543909 -20.69423951 418.98794295 -42.80371094 414.26074219 C-43.66158203 414.07882324 -44.51945313 413.8969043 -45.40332031 413.70947266 C-78.09127736 406.50343957 -109.82756762 390.57327826 -134.80371094 368.26074219 C-135.55177002 367.60090332 -135.55177002 367.60090332 -136.31494141 366.92773438 C-153.57816966 351.64896579 -168.44210325 334.40459348 -179.80371094 314.26074219 C-180.21975586 313.5335498 -180.63580078 312.80635742 -181.06445312 312.05712891 C-207.43213178 265.51978966 -215.67322067 207.1753843 -201.39697266 155.33203125 C-197.62221091 142.15298654 -192.74687057 129.61158428 -186.80371094 117.26074219 C-186.45969238 116.5453125 -186.11567383 115.82988281 -185.76123047 115.09277344 C-172.54815488 88.03830818 -152.33536222 63.91198495 -128.80371094 45.26074219 C-127.83820313 44.46667969 -126.87269531 43.67261719 -125.87792969 42.85449219 C-116.79592619 35.56119332 -107.01245315 29.83583651 -96.80371094 24.26074219 C-96.14032715 23.89207031 -95.47694336 23.52339844 -94.79345703 23.14355469 C-79.06155494 14.46838297 -61.78280028 8.3541215 -44.30371094 4.32324219 C-43.08917236 4.04250854 -43.08917236 4.04250854 -41.85009766 3.75610352 C-27.99522468 0.80335784 -14.12699127 -0.07360757 0 0 Z " fill="#FDFDFD" transform="translate(241.8037109375,40.7392578125)"/>
<path d="M0 0 C2.45890589 0.01079759 4.91709141 -0.00001562 7.37597656 -0.01269531 C16.50640345 -0.02122131 25.20198932 0.52851811 34.19628906 2.26074219 C35.0597998 2.4120459 35.92331055 2.56334961 36.81298828 2.71923828 C66.9575758 8.05081219 96.2641446 19.28558421 121.19628906 37.26074219 C122.18886719 37.9684375 123.18144531 38.67613281 124.20410156 39.40527344 C130.36945543 43.90708553 136.08743149 48.72348227 141.67285156 53.92480469 C143.84431796 55.93492373 146.05843696 57.85565326 148.32128906 59.76074219 C167.96398652 76.98282441 182.253051 100.80653766 193.19628906 124.26074219 C193.72867187 125.38480469 194.26105469 126.50886719 194.80957031 127.66699219 C201.13077768 141.64878419 204.97224594 156.31908109 208.00878906 171.32324219 C208.31925171 172.85621948 208.31925171 172.85621948 208.63598633 174.42016602 C210.73793937 185.29810491 211.34687721 195.88301558 211.25878906 206.94824219 C211.25427734 208.04330078 211.24976563 209.13835937 211.24511719 210.26660156 C211.23348078 212.9313394 211.21555191 215.59604856 211.19628906 218.26074219 C205.91628906 218.26074219 200.63628906 218.26074219 195.19628906 218.26074219 C195.08671875 216.31554687 194.97714844 214.37035156 194.86425781 212.36621094 C194.00233639 188.98918743 194.00233639 188.98918743 189.19628906 166.26074219 C65.11628906 165.93074219 -58.96371094 165.60074219 -186.80371094 165.26074219 C-187.46371094 170.54074219 -188.12371094 175.82074219 -188.80371094 181.26074219 C-189.32964844 184.78761719 -189.32964844 184.78761719 -189.86621094 188.38574219 C-191.21776209 198.29356995 -191.45784572 208.27615948 -191.80371094 218.26074219 C-197.08371094 218.26074219 -202.36371094 218.26074219 -207.80371094 218.26074219 C-208.6172567 182.31407203 -202.40873214 149.6904874 -186.80371094 117.26074219 C-186.45969238 116.5453125 -186.11567383 115.82988281 -185.76123047 115.09277344 C-172.54815488 88.03830818 -152.33536222 63.91198495 -128.80371094 45.26074219 C-127.83820313 44.46667969 -126.87269531 43.67261719 -125.87792969 42.85449219 C-116.79592619 35.56119332 -107.01245315 29.83583651 -96.80371094 24.26074219 C-96.14032715 23.89207031 -95.47694336 23.52339844 -94.79345703 23.14355469 C-79.06155494 14.46838297 -61.78280028 8.3541215 -44.30371094 4.32324219 C-43.08917236 4.04250854 -43.08917236 4.04250854 -41.85009766 3.75610352 C-27.99522468 0.80335784 -14.12699127 -0.07360757 0 0 Z " fill="#D82D2D" transform="translate(241.8037109375,40.7392578125)"/>
<path d="M0 0 C0.74040527 0.15484863 1.48081055 0.30969727 2.24365234 0.46923828 C36.5434847 7.96324956 67.94079842 26.80120019 93 51 C93.84949219 51.79792969 94.69898438 52.59585938 95.57421875 53.41796875 C114.35547184 71.49160791 128.63035682 94.78298967 138.125 118.9375 C138.42043701 119.68878174 138.71587402 120.44006348 139.02026367 121.21411133 C140.33762325 124.71434014 141 127.21411033 141 131 C136.38 131 131.76 131 127 131 C126.14728516 128.95232422 126.14728516 128.95232422 125.27734375 126.86328125 C119.01914897 111.96106563 112.21336583 98.34349534 103 85 C102.34 84.01 101.68 83.02 101 82 C93.80246631 82.55072186 86.91615845 83.75125581 79.875 85.3125 C67.64615796 87.9496579 55.35467069 90.04847846 43 92 C43 95.37326324 43.30324593 97.79591722 44.05859375 101.02734375 C44.39020508 102.46303711 44.39020508 102.46303711 44.72851562 103.92773438 C44.96248047 104.92095703 45.19644531 105.91417969 45.4375 106.9375 C45.89504791 108.90482783 46.35209593 110.872272 46.80859375 112.83984375 C47.01282959 113.70988037 47.21706543 114.57991699 47.42749023 115.47631836 C47.61641846 116.3091333 47.80534668 117.14194824 48 118 C48.28435913 119.14964233 48.28435913 119.14964233 48.57446289 120.32250977 C49.13355745 123.84034684 49 127.43801117 49 131 C43.72 131 38.44 131 33 131 C32.66226562 129.288125 32.32453125 127.57625 31.9765625 125.8125 C31.5261452 123.54164613 31.0756186 121.27081394 30.625 119 C30.40328125 117.87464844 30.1815625 116.74929687 29.953125 115.58984375 C29.00937914 110.84335724 28.06705123 106.11877196 26.8359375 101.4375 C26 98 26 98 26 94 C25.43007324 94.08040527 24.86014648 94.16081055 24.27294922 94.24365234 C11.56287928 96.00621595 -1.13550374 97.34287452 -13.9375 98.1875 C-15.19771973 98.27112793 -16.45793945 98.35475586 -17.75634766 98.44091797 C-24.20916771 98.84276092 -30.51540284 99 -37 99 C-37 109.56 -37 120.12 -37 131 C-41.29 131 -45.58 131 -50 131 C-50 120.44 -50 109.88 -50 99 C-54.599375 99.04125 -59.19875 99.0825 -63.9375 99.125 C-76.35667729 99.17903367 -88.56926518 98.61743023 -100.9375 97.4375 C-104.98510587 97.05429471 -108.93634691 96.9096966 -113 97 C-113.17128418 97.74572266 -113.34256836 98.49144531 -113.51904297 99.25976562 C-114.30357598 102.67335827 -115.08927874 106.08668067 -115.875 109.5 C-116.14441406 110.67304688 -116.41382813 111.84609375 -116.69140625 113.0546875 C-118.07268856 119.05147413 -119.47969876 125.03687668 -121 131 C-126.28 131 -131.56 131 -137 131 C-135.571391 120.43695162 -134.03116414 110.04981906 -131.18261719 99.76367188 C-130.75136565 98.18543967 -130.36993241 96.59372043 -130 95 C-131.90552172 93.09447828 -135.27056447 93.22882464 -137.875 92.8125 C-145.93147166 91.45823282 -153.9009182 89.77244327 -161.875 88 C-163.00276855 87.75096924 -164.13053711 87.50193848 -165.29248047 87.24536133 C-172.25190274 85.68513837 -179.1377179 83.9434231 -186 82 C-194.96369496 93.68141098 -201.73599636 105.88161485 -207.45703125 119.3984375 C-209.15403026 123.35953392 -211.01031551 127.17980579 -213 131 C-217.62 131 -222.24 131 -227 131 C-219.15873777 102.36234665 -203.23631082 77.51595989 -183 56 C-182.47019531 55.43619629 -181.94039062 54.87239258 -181.39453125 54.29150391 C-163.91251925 35.84208844 -143.87421049 22.81379771 -121 12 C-119.88367188 11.46503906 -118.76734375 10.93007812 -117.6171875 10.37890625 C-81.20096069 -6.19349011 -38.78413194 -8.17689729 0 0 Z " fill="#FBFBFB" transform="translate(286,61)"/>
<path d="M0 0 C1.29651382 3.88954147 0.40133749 5.20649154 -1.08984375 8.98046875 C-1.77143555 10.72553711 -1.77143555 10.72553711 -2.46679688 12.50585938 C-2.95212891 13.72080078 -3.43746094 14.93574219 -3.9375 16.1875 C-4.41896484 17.41404297 -4.90042969 18.64058594 -5.39648438 19.90429688 C-6.58934292 22.93959041 -7.79081242 25.9711827 -9 29 C-12.76865604 28.39910117 -16.26898306 27.69414227 -19.875 26.4375 C-20.65617187 26.16808594 -21.43734375 25.89867187 -22.2421875 25.62109375 C-22.82226562 25.41613281 -23.40234375 25.21117187 -24 25 C-23.33654156 19.74272175 -21.74419696 15.07140932 -19.9375 10.125 C-19.65583984 9.34125 -19.37417969 8.5575 -19.08398438 7.75 C-18.39386218 5.83169424 -17.69755684 3.91561481 -17 2 C-21.62 2 -26.24 2 -31 2 C-31.433125 3.505625 -31.86625 5.01125 -32.3125 6.5625 C-33.60051877 10.87429615 -35.13255023 14.90939573 -37 19 C-42.46228253 18.34715294 -47.23545786 16.57276287 -52.3359375 14.62109375 C-53.21528961 14.28956802 -54.09464172 13.9580423 -55.00064087 13.61647034 C-57.79407441 12.56196571 -60.58454387 11.49985517 -63.375 10.4375 C-65.27454869 9.71889623 -67.17428633 9.00079173 -69.07421875 8.28320312 C-73.718354 6.52790987 -78.35984698 4.76579202 -83 3 C-78.92825312 14.69607852 -74.81403846 26.37039737 -70.50195312 37.98046875 C-70.17259766 38.87636719 -69.84324219 39.77226562 -69.50390625 40.6953125 C-69.21330322 41.47922363 -68.9227002 42.26313477 -68.62329102 43.07080078 C-68 45 -68 45 -68 47 C-75.63131478 45.03662604 -83.02572389 42.6668161 -90.4375 40 C-98.22110154 37.24008004 -105.90002794 34.6722523 -114 33 C-113.23316717 26.28415883 -112.1160389 19.65478858 -110.9375 13 C-110.75123047 11.93910156 -110.56496094 10.87820313 -110.37304688 9.78515625 C-109.91710551 7.18979773 -109.45879439 4.5948557 -109 2 C-114.28 2 -119.56 2 -125 2 C-125.0825 3.505625 -125.165 5.01125 -125.25 6.5625 C-125.89648267 13.95363022 -127.94064968 20.90242519 -130 28 C-138.39581659 27.2535188 -146.71829416 26.09145976 -155.05969238 24.9012146 C-168.35477017 23.00735367 -181.62792799 21.26804131 -195 20 C-195 14.06 -195 8.12 -195 2 C-199.29 2 -203.58 2 -208 2 C-208 7.94 -208 13.88 -208 20 C-210.083125 20.08636719 -212.16625 20.17273438 -214.3125 20.26171875 C-234.50489131 21.18279099 -254.09627707 23.49072987 -274 27 C-275.65 18.75 -277.3 10.5 -279 2 C-284.28 2 -289.56 2 -295 2 C-294.5978125 3.485 -294.5978125 3.485 -294.1875 5 C-293.09804597 9.36565394 -292.22171424 13.76951093 -291.375 18.1875 C-291.23989014 18.87650391 -291.10478027 19.56550781 -290.96557617 20.27539062 C-290.28119703 23.91250265 -289.94038282 27.30731159 -290 31 C-291.01646606 31.2928186 -291.01646606 31.2928186 -292.0534668 31.59155273 C-308.65060858 36.41775137 -325.11059939 41.60328331 -340.390625 49.82421875 C-343 51 -343 51 -346 50 C-352.12280264 42.17425225 -356.72704392 33.05634795 -361.375 24.3125 C-361.88667725 23.36358887 -362.39835449 22.41467773 -362.92553711 21.43701172 C-366.24579985 15.07166134 -368.32652522 8.98419578 -370 2 C-374.95 2 -379.9 2 -385 2 C-373.80852024 30.18594902 -361.02878146 54.83090184 -340 77 C-339.54318848 77.48936035 -339.08637695 77.9787207 -338.61572266 78.48291016 C-309.75633386 109.23880044 -268.92522642 129.27869265 -227.22143555 134.70629883 C-225.36664997 134.95152435 -223.51671001 135.23304805 -221.66845703 135.5234375 C-215.52648368 136.32132995 -209.37208624 136.19737062 -203.1875 136.1875 C-202.49337006 136.18689575 -201.79924011 136.1862915 -201.08407593 136.18566895 C-190.27357522 136.16010594 -179.6780202 135.78253058 -169 134 C-167.83331787 133.8146167 -167.83331787 133.8146167 -166.64306641 133.62548828 C-124.34907989 126.72017681 -87.63001405 104.37490267 -58 74 C-56.24082094 76.6387686 -55.07080116 78.96078829 -53.875 81.875 C-53.34519531 83.13957031 -53.34519531 83.13957031 -52.8046875 84.4296875 C-51.91006149 87.28727932 -51.48156965 89.03754084 -52 92 C-54.1328125 94.5078125 -54.1328125 94.5078125 -57.125 97.125 C-57.66487549 97.59873047 -58.20475098 98.07246094 -58.76098633 98.56054688 C-60.49058621 100.06140042 -62.24075767 101.53404579 -64 103 C-64.55059082 103.46245117 -65.10118164 103.92490234 -65.66845703 104.40136719 C-96.95108123 130.44704837 -133.93648243 145.8934581 -174 152 C-174.68006104 152.10530029 -175.36012207 152.21060059 -176.06079102 152.3190918 C-198.59670934 155.31469691 -222.89052857 153.72720076 -245 149 C-245.85787109 148.81808105 -246.71574219 148.63616211 -247.59960938 148.44873047 C-280.28756642 141.24269739 -312.02385668 125.31253607 -337 103 C-337.49870605 102.56010742 -337.99741211 102.12021484 -338.51123047 101.66699219 C-355.77445872 86.3882236 -370.63839232 69.14385129 -382 49 C-382.41604492 48.27280762 -382.83208984 47.54561523 -383.26074219 46.79638672 C-402 13.72274343 -402 13.72274343 -402 1 C-203.01 0.505 -203.01 0.505 0 0 Z " fill="#080808" transform="translate(444,306)"/>
<path d="M0 0 C2.45890589 0.01079759 4.91709141 -0.00001562 7.37597656 -0.01269531 C16.50640345 -0.02122131 25.20198932 0.52851811 34.19628906 2.26074219 C35.0597998 2.4120459 35.92331055 2.56334961 36.81298828 2.71923828 C66.9575758 8.05081219 96.2641446 19.28558421 121.19628906 37.26074219 C122.18886719 37.9684375 123.18144531 38.67613281 124.20410156 39.40527344 C130.36945543 43.90708553 136.08743149 48.72348227 141.67285156 53.92480469 C143.84431796 55.93492373 146.05843696 57.85565326 148.32128906 59.76074219 C167.93863409 76.96059621 182.31311556 100.80386353 193.19628906 124.26074219 C193.63545654 125.20506104 193.63545654 125.20506104 194.08349609 126.16845703 C197.27639975 133.11369704 199.89559527 139.71671822 201.19628906 147.26074219 C195.58628906 147.26074219 189.97628906 147.26074219 184.19628906 147.26074219 C183.72320312 146.01421875 183.25011719 144.76769531 182.76269531 143.48339844 C174.34184377 121.65004246 163.5901541 101.99360438 148.19628906 84.26074219 C147.101875 83.00003906 147.101875 83.00003906 145.98535156 81.71386719 C143.75648487 79.19563885 141.48846918 76.72140734 139.19628906 74.26074219 C138.473125 73.47183594 137.74996094 72.68292969 137.00488281 71.87011719 C105.67408122 39.00193277 57.19509509 18.43354916 12.04174805 16.96934509 C8.46785051 16.89309519 4.89590884 16.87598704 1.32128906 16.88574219 C0.56338074 16.88628601 -0.19452759 16.88682983 -0.97540283 16.88739014 C-42.78817782 17.02425862 -82.5887596 30.88534459 -115.80371094 56.26074219 C-116.68671875 56.91945312 -117.56972656 57.57816406 -118.47949219 58.25683594 C-145.25668669 79.10160191 -165.1555883 106.92953554 -177.80371094 138.26074219 C-178.60785576 140.09775565 -179.41889219 141.93179188 -180.24121094 143.76074219 C-180.75683594 144.91574219 -181.27246094 146.07074219 -181.80371094 147.26074219 C-187.08371094 147.26074219 -192.36371094 147.26074219 -197.80371094 147.26074219 C-196.6768792 139.37292006 -196.6768792 139.37292006 -195.08886719 135.65136719 C-194.73783936 134.82411133 -194.38681152 133.99685547 -194.02514648 133.14453125 C-193.64269775 132.27538086 -193.26024902 131.40623047 -192.86621094 130.51074219 C-192.4650708 129.59260742 -192.06393066 128.67447266 -191.65063477 127.72851562 C-177.376464 95.54875872 -156.50041065 67.21321223 -128.80371094 45.26074219 C-127.83820313 44.46667969 -126.87269531 43.67261719 -125.87792969 42.85449219 C-116.79592619 35.56119332 -107.01245315 29.83583651 -96.80371094 24.26074219 C-96.14032715 23.89207031 -95.47694336 23.52339844 -94.79345703 23.14355469 C-79.06155494 14.46838297 -61.78280028 8.3541215 -44.30371094 4.32324219 C-43.08917236 4.04250854 -43.08917236 4.04250854 -41.85009766 3.75610352 C-27.99522468 0.80335784 -14.12699127 -0.07360757 0 0 Z " fill="#030303" transform="translate(241.8037109375,40.7392578125)"/>
<path d="M0 0 C2.625 0.9375 2.625 0.9375 5 2 C5 2.99 5 3.98 5 5 C8.3 5 11.6 5 15 5 C15 11.93 15 18.86 15 26 C18.63 26 22.26 26 26 26 C26 32.93 26 39.86 26 47 C29.3 47 32.6 47 36 47 C36 40.07 36 33.14 36 26 C39.63 26 43.26 26 47 26 C47 32.93 47 39.86 47 47 C50.3 47 53.6 47 57 47 C57 40.07 57 33.14 57 26 C60.63 26 64.26 26 68 26 C68 35.57 68 45.14 68 55 C61 56 61 56 58 55 C58 55.99 58 56.98 58 58 C54.37 58 50.74 58 47 58 C47 57.01 47 56.02 47 55 C45.72125 55.185625 44.4425 55.37125 43.125 55.5625 C39.25 56.125 39.25 56.125 37 55 C37 55.99 37 56.98 37 58 C33.37 58 29.74 58 26 58 C26 57.01 26 56.02 26 55 C21.71 55 17.42 55 13 55 C13 53.68 13 52.36 13 51 C13.66 51 14.32 51 15 51 C14.67 46.71 14.34 42.42 14 38 C13.67 38.33 13.34 38.66 13 39 C10.0625 39.25 10.0625 39.25 7 39 C4.64290358 35.46435537 4.69990265 33.77974745 4.5859375 29.58203125 C4.54726562 28.32841797 4.50859375 27.07480469 4.46875 25.78320312 C4.4378125 24.47287109 4.406875 23.16253906 4.375 21.8125 C4.33680662 20.4771884 4.29775409 19.14190108 4.2578125 17.80664062 C4.16340847 14.53790112 4.07782983 11.26916936 4 8 C4.01047363 8.60996826 4.02094727 9.21993652 4.03173828 9.84838867 C4.07346621 12.62805007 4.09937922 15.40764539 4.125 18.1875 C4.14175781 19.14720703 4.15851563 20.10691406 4.17578125 21.09570312 C4.18222656 22.02705078 4.18867188 22.95839844 4.1953125 23.91796875 C4.20578613 24.77156982 4.21625977 25.6251709 4.22705078 26.50463867 C3.97204194 29.30726815 3.15541422 31.44729419 2 34 C-1.3 34 -4.6 34 -8 34 C-8 43.9 -8 53.8 -8 64 C-11.465 64.495 -11.465 64.495 -15 65 C-15.495 66.98 -15.495 66.98 -16 69 C-16.99 69 -17.98 69 -19 69 C-19 70.65 -19 72.3 -19 74 C-18.34 74 -17.68 74 -17 74 C-16.67 73.34 -16.34 72.68 -16 72 C-16 72.66 -16 73.32 -16 74 C-15.01 74 -14.02 74 -13 74 C-12.375 76.875 -12.375 76.875 -12 80 C-12.66 80.66 -13.32 81.32 -14 82 C-18.55555556 81.44444444 -18.55555556 81.44444444 -20 80 C-20.04063832 78.33382885 -20.042721 76.66611905 -20 75 C-22.97 75 -25.94 75 -29 75 C-29 73.35 -29 71.7 -29 70 C-30.32 69.67 -31.64 69.34 -33 69 C-32.505 67.02 -32.505 67.02 -32 65 C-34.31 64.67 -36.62 64.34 -39 64 C-39.33 67.63 -39.66 71.26 -40 75 C-43.3 75 -46.6 75 -50 75 C-50 71.37 -50 67.74 -50 64 C-53.63 64 -57.26 64 -61 64 C-61 54.1 -61 44.2 -61 34 C-64.3 34 -67.6 34 -71 34 C-71 24.43 -71 14.86 -71 5 C-67.7 5 -64.4 5 -61 5 C-61 11.93 -61 18.86 -61 26 C-57.37 26 -53.74 26 -50 26 C-50 32.93 -50 39.86 -50 47 C-46.7 47 -43.4 47 -40 47 C-40 40.07 -40 33.14 -40 26 C-36.37 26 -32.74 26 -29 26 C-29 32.93 -29 39.86 -29 47 C-25.7 47 -22.4 47 -19 47 C-19 40.07 -19 33.14 -19 26 C-15.37 26 -11.74 26 -8 26 C-8 19.07 -8 12.14 -8 5 C-6.35 5 -4.7 5 -3 5 C-2.814375 4.0409375 -2.814375 4.0409375 -2.625 3.0625 C-2.41875 2.381875 -2.2125 1.70125 -2 1 C-1.34 0.67 -0.68 0.34 0 0 Z " fill="#656565" transform="translate(203,219)"/>
<path d="M0 0 C0 29.37 0 58.74 0 89 C-15.19480679 86.82931332 -26.52424672 76.38897309 -35.61254883 64.41064453 C-46.41040321 49.67243988 -62 24.71607594 -62 6 C-41.15585214 2.21474313 -21.32225844 0 0 0 Z " fill="#020202" transform="translate(236,339)"/>
<path d="M0 0 C21.84231654 0 21.84231654 0 29.02734375 1.27734375 C29.83442276 1.40814835 30.64150177 1.53895294 31.47303772 1.67372131 C33.96377354 2.08093553 36.45038623 2.50878825 38.9375 2.9375 C40.64756423 3.21945015 42.35785106 3.5000535 44.06835938 3.77929688 C57.10404504 5.92869176 57.10404504 5.92869176 61 7 C56.34771303 33.05280702 39.75719615 65.44981176 18 81 C6.33109405 88 6.33109405 88 0 88 C0 58.96 0 29.92 0 0 Z " fill="#010101" transform="translate(249,340)"/>
<path d="M0 0 C9.82736438 2.73038111 19.28221223 6.39320843 28.8125 10 C30.58909349 10.6696155 32.36578715 11.33896531 34.14257812 12.00805664 C39.43020342 14.00057478 44.71535688 15.99958828 50 18 C51.56558857 18.5922954 53.13118086 19.18458098 54.69677734 19.77685547 C62.80079214 22.84350961 70.90202539 25.91742561 79 29 C79 29.66 79 30.32 79 31 C71.74 34.96 64.48 38.92 57 43 C56.69759984 45.91566598 56.69759984 45.91566598 58.13891602 47.49967957 C58.67186279 48.02596451 59.20480957 48.55224945 59.75390625 49.09448242 C60.35452881 49.69487839 60.95515137 50.29527435 61.57397461 50.91386414 C62.23018799 51.55459366 62.88640137 52.19532318 63.5625 52.85546875 C64.22838135 53.51710526 64.8942627 54.17874176 65.58032227 54.86042786 C67.71329379 56.9765774 69.8564491 59.08207266 72 61.1875 C73.44599425 62.61845203 74.89131571 64.05008428 76.3359375 65.48242188 C79.8828599 68.99622824 83.43895178 72.50051246 87 76 C86.06280291 77.11832809 85.12198826 78.23362511 84.1796875 79.34765625 C83.65616699 79.96906494 83.13264648 80.59047363 82.59326172 81.23071289 C80.59954754 83.44469491 78.39658203 85.23780733 76 87 C75.34 86.67 74.68 86.34 74 86 C74 85.34 74 84.68 74 84 C72.515 83.505 72.515 83.505 71 83 C66.22727273 78.68181818 66.22727273 78.68181818 65 75 C64.34 75 63.68 75 63 75 C61.375 73.625 61.375 73.625 60 72 C60 71.34 60 70.68 60 70 C59.01 69.67 58.02 69.34 57 69 C55.3125 67.5625 55.3125 67.5625 54 66 C54 65.34 54 64.68 54 64 C53.360625 63.731875 52.72125 63.46375 52.0625 63.1875 C50 62 50 62 49 59 C46.99983534 57.79117904 46.99983534 57.79117904 45 57 C45 56.34 45 55.68 45 55 C44.34 55 43.68 55 43 55 C42.78601563 55.78632813 42.57203125 56.57265625 42.3515625 57.3828125 C40.54716902 62.21191181 38.00008927 66.45099169 35.375 70.875 C34.859375 71.75414062 34.34375 72.63328125 33.8125 73.5390625 C32.54664427 75.6957056 31.27571593 77.84917988 30 80 C27.54014602 77.54014602 26.92874863 75.46660843 25.75 72.19140625 C25.31139648 70.98258789 24.87279297 69.77376953 24.42089844 68.52832031 C24.18947144 67.88237915 23.95804443 67.23643799 23.71960449 66.57092285 C22.99284181 64.54252143 22.25958357 62.51657938 21.52441406 60.49121094 C20.51107261 57.69877976 19.49991486 54.90557326 18.49023438 52.11181641 C16.27150708 45.9808674 14.01365185 39.86449725 11.75 33.75 C11.34152832 32.64406494 10.93305664 31.53812988 10.51220703 30.39868164 C7.76613272 22.98938895 4.94489134 15.61265418 1.97949219 8.28808594 C0.81321325 5.36170839 0 3.18293334 0 0 Z " fill="#020202" transform="translate(379,327)"/>
<path d="M0 0 C0 24.75 0 49.5 0 75 C-44.90894819 75 -44.90894819 75 -59 72 C-50.5076946 44.80433191 -35.73804182 16.41983316 -10 2 C-6.07327489 0.08229704 -4.63465953 0 0 0 Z " fill="#030303" transform="translate(236,72)"/>
<path d="M0 0 C2.17578125 2.3515625 2.17578125 2.3515625 4.3125 5.625 C4.69712402 6.21112061 5.08174805 6.79724121 5.47802734 7.40112305 C6.67732404 9.25272495 7.84313912 11.12163487 9 13 C9.53294678 13.85730713 9.53294678 13.85730713 10.07666016 14.73193359 C14.23649923 21.49779526 17.79066032 28.43320916 21 35.6875 C21.30309082 36.37110596 21.60618164 37.05471191 21.91845703 37.7590332 C23.16737851 40.6730611 24 42.79596772 24 46 C-1.08 46 -26.16 46 -52 46 C-53.65 38.08 -55.3 30.16 -57 22 C-57.99 18.37 -58.98 14.74 -60 11 C-53.04809955 8.72786462 -45.89560277 7.76584759 -38.6875 6.625 C-29.16144741 5.09414826 -19.69509769 3.46408638 -10.31713867 1.16845703 C-3.00219832 -0.59535119 -3.00219832 -0.59535119 0 0 Z " fill="#010101" transform="translate(387,142)"/>
<path d="M0 0 C14.97084942 2.13869277 25.93948478 12.20867782 35 24 C44.83045619 37.78734583 52.33056964 53.081984 58 69 C55.2822681 71.7177319 53.45255174 71.47932469 49.6484375 71.8515625 C48.67265244 71.94719986 48.67265244 71.94719986 47.67715454 72.04476929 C46.28373059 72.17856264 44.88985333 72.3077018 43.49560547 72.43261719 C41.45756658 72.6175095 39.42248489 72.8230182 37.38671875 73.03125 C24.78514695 74.20404586 12.82574905 74 0 74 C0 49.58 0 25.16 0 0 Z " fill="#010101" transform="translate(249,72)"/>
<path d="M0 0 C0.8669751 0.25414673 0.8669751 0.25414673 1.75146484 0.51342773 C10.95078269 3.1213205 20.27762661 5.07328624 29.625 7.0625 C32.09781601 7.59180084 34.57044776 8.12195597 37.0430603 8.65220642 C38.56896 8.97910637 40.09501034 9.3053043 41.62124634 9.63063049 C46.75383976 10.72573488 51.87842192 11.85451093 57 13 C56.84466797 13.67131958 56.68933594 14.34263916 56.52929688 15.03430176 C55.89167718 17.79304899 55.25843465 20.55278894 54.625 23.3125 C54.40328125 24.26962891 54.1815625 25.22675781 53.953125 26.21289062 C53.73398438 27.17001953 53.51484375 28.12714844 53.2890625 29.11328125 C53.09006348 29.97735596 52.89106445 30.84143066 52.68603516 31.73168945 C51.69183507 36.46811528 50.86574201 41.23841894 50 46 C25.25 46 0.5 46 -25 46 C-21.88357579 37.2740122 -19.17114556 29.69131768 -14.6875 21.8125 C-14.21328613 20.96389404 -13.73907227 20.11528809 -13.25048828 19.2409668 C-5.38243665 5.38243665 -5.38243665 5.38243665 0 0 Z " fill="#010101" transform="translate(100,142)"/>
<path d="M0 0 C24.75 0 49.5 0 75 0 C76.3543403 5.41736122 77.59923779 10.71851272 78.625 16.1875 C78.7590625 16.87263672 78.893125 17.55777344 79.03125 18.26367188 C79.71809052 21.90462748 80.05968509 25.30310549 80 29 C78.98353394 29.2928186 78.98353394 29.2928186 77.9465332 29.59155273 C61.34939142 34.41775137 44.88940061 39.60328331 29.609375 47.82421875 C27 49 27 49 24 48 C17.87719736 40.17425225 13.27295608 31.05634795 8.625 22.3125 C8.11332275 21.36358887 7.60164551 20.41467773 7.07446289 19.43701172 C6.58840576 18.50518066 6.10234863 17.57334961 5.6015625 16.61328125 C5.17182129 15.79641846 4.74208008 14.97955566 4.29931641 14.13793945 C2.41489097 9.586921 1.29604562 4.75216729 0 0 Z " fill="#010101" transform="translate(74,308)"/>
<path d="M0 0 C9.06378492 2.06276992 17.82226226 4.79481229 26.61987305 7.76123047 C28.82477558 8.50413605 31.03228251 9.23886926 33.24023438 9.97265625 C34.66682623 10.45004427 36.09326416 10.92789257 37.51953125 11.40625 C38.16759232 11.62196655 38.81565338 11.83768311 39.48335266 12.05993652 C43.76105922 13.50771061 47.87225963 15.1788892 52 17 C31.17804632 42.4490545 3.70672443 59.1666566 -27.0625 70.1875 C-28.32078613 70.64322388 -28.32078613 70.64322388 -29.60449219 71.1081543 C-30.7767334 71.50901245 -30.7767334 71.50901245 -31.97265625 71.91796875 C-32.65593994 72.15281982 -33.33922363 72.3876709 -34.04321289 72.62963867 C-36.32584378 73.06167249 -37.81000058 72.71103877 -40 72 C-39.09121094 71.06994141 -39.09121094 71.06994141 -38.1640625 70.12109375 C-19.35487004 50.24122418 -9.29480887 25.37944265 0 0 Z " fill="#020202" transform="translate(326,351)"/>
<path d="M0 0 C0.91625977 1.89160156 0.91625977 1.89160156 1.69140625 4.390625 C2.14108765 5.7813623 2.14108765 5.7813623 2.59985352 7.20019531 C2.91752686 8.20663086 3.2352002 9.21306641 3.5625 10.25 C11.60247695 34.48942096 23.6433358 54.52916663 40 74 C24.81163077 70.33162269 10.70215423 64.42157191 -3 57 C-3.6276123 56.66129883 -4.25522461 56.32259766 -4.90185547 55.97363281 C-20.7186531 47.30136627 -39.77344541 34.09161455 -50 19 C-49 16 -49 16 -46 14.38671875 C-44.67225866 13.80732531 -43.3383865 13.24186035 -42 12.6875 C-40.93108521 12.23346802 -40.93108521 12.23346802 -39.84057617 11.77026367 C-32.01571202 8.49929097 -24.0444571 5.67693309 -16 3 C-15.35240723 2.78150391 -14.70481445 2.56300781 -14.03759766 2.33789062 C-3.54309181 -1.1810306 -3.54309181 -1.1810306 0 0 Z " fill="#030303" transform="translate(159,350)"/>
<path d="M0 0 C28.94392843 3.92614802 57.5855201 21.77068903 78.37890625 41.5546875 C80.94786205 44.02062446 80.94786205 44.02062446 83.6953125 46.1171875 C86.48365213 48.3951192 88.12666285 50.94715428 90 54 C80.19787679 57.2673744 70.13422707 59.09012485 60 61 C59.18321777 61.15533203 58.36643555 61.31066406 57.52490234 61.47070312 C55.22629698 61.90495202 52.9262094 62.32979024 50.625 62.75 C49.94236084 62.87761719 49.25972168 63.00523437 48.55639648 63.13671875 C44.64682347 63.83201436 40.96267887 64.04602091 37 64 C36.58657349 62.96782349 36.58657349 62.96782349 36.16479492 61.91479492 C28.55189748 43.05282536 20.68274035 24.34996501 7 9 C6.32453125 8.22914062 5.6490625 7.45828125 4.953125 6.6640625 C3.72758154 5.26694295 2.49432271 3.87651426 1.25 2.49609375 C0 1 0 1 0 0 Z " fill="#020202" transform="translate(286,76)"/>
<path d="M0 0 C-0.928125 0.845625 -1.85625 1.69125 -2.8125 2.5625 C-19.64533491 19.6652 -30.13860136 42.61645405 -38 65 C-55.11382322 63.16637608 -71.39020329 59.44911789 -88 55 C-88 51 -88 51 -85.98046875 48.51953125 C-79.58249686 42.31842003 -73.07614638 36.43516337 -66 31 C-64.97648437 30.20980469 -63.95296875 29.41960937 -62.8984375 28.60546875 C-48.94434255 18.10768299 -33.44726543 9.83098096 -17 4 C-16.319375 3.75491699 -15.63875 3.50983398 -14.9375 3.25732422 C-2.4395415 -1.21977075 -2.4395415 -1.21977075 0 0 Z " fill="#030303" transform="translate(199,77)"/>
<path d="M0 0 C3.3 0 6.6 0 10 0 C10 6.93 10 13.86 10 21 C13.63 21 17.26 21 21 21 C21 27.93 21 34.86 21 42 C24.3 42 27.6 42 31 42 C31 35.07 31 28.14 31 21 C34.63 21 38.26 21 42 21 C42 27.93 42 34.86 42 42 C45.3 42 48.6 42 52 42 C52 35.07 52 28.14 52 21 C55.63 21 59.26 21 63 21 C63 33.54 63 46.08 63 59 C59.7 59 56.4 59 53 59 C52.67 62.63 52.34 66.26 52 70 C48.7 70 45.4 70 42 70 C42 66.37 42 62.74 42 59 C38.7 59 35.4 59 32 59 C31.67 62.63 31.34 66.26 31 70 C27.7 70 24.4 70 21 70 C21 66.37 21 62.74 21 59 C17.37 59 13.74 59 10 59 C9.06174672 54.30873358 9.07240898 50.38332585 9.4375 45.6875 C9.48970703 44.94693359 9.54191406 44.20636719 9.59570312 43.44335938 C9.72450152 41.62847291 9.86143262 39.81416675 10 38 C6.7 38 3.4 38 0 38 C0 25.46 0 12.92 0 0 Z " fill="#979797" transform="translate(284,224)"/>
<path d="M0 0 C1.01527131 3.99628068 2.00942291 7.99753312 3 12 C3.28617187 13.12535156 3.57234375 14.25070313 3.8671875 15.41015625 C4.27324219 17.06337891 4.27324219 17.06337891 4.6875 18.75 C4.93886719 19.75546875 5.19023437 20.7609375 5.44921875 21.796875 C6 25 6 25 6 33 C-16.77 33 -39.54 33 -63 33 C-63 23.76 -63 14.52 -63 5 C-57.8334375 4.58427734 -57.8334375 4.58427734 -52.5625 4.16015625 C-49.20976404 3.88917276 -45.85707724 3.61758867 -42.50439453 3.34594727 C-40.18250512 3.15814501 -37.86056547 2.97096269 -35.53857422 2.78442383 C-32.19224722 2.51548413 -28.84610992 2.2442819 -25.5 1.97265625 C-24.4694751 1.89032242 -23.4389502 1.80798859 -22.37719727 1.72315979 C-18.12248494 1.37595006 -13.88741518 1.00911157 -9.65625 0.43920898 C-6.38948151 0.04678667 -3.28483489 -0.08212087 0 0 Z " fill="#020202" transform="translate(312,155)"/>
<path d="M0 0 C2.5556301 0.06677418 5.07653448 0.19652754 7.625 0.375 C8.40206299 0.42462891 9.17912598 0.47425781 9.97973633 0.52539062 C13.45820898 0.74983113 16.93435852 0.99503741 20.41015625 1.2578125 C34.25066377 2.28059136 48.1308324 2.57809005 62 3 C62 12.24 62 21.48 62 31 C39.56 31 17.12 31 -6 31 C-6 19.74454582 -6 19.74454582 -4.94140625 15.68359375 C-4.60979492 14.38518555 -4.60979492 14.38518555 -4.27148438 13.06054688 C-4.03751953 12.19494141 -3.80355469 11.32933594 -3.5625 10.4375 C-3.33240234 9.53708984 -3.10230469 8.63667969 -2.86523438 7.70898438 C-1.16003667 1.16003667 -1.16003667 1.16003667 0 0 Z " fill="#000000" transform="translate(173,157)"/>
<path d="M0 0 C23.1 0 46.2 0 70 0 C69.34884516 7.16270325 68.82988364 12.53363495 66.9375 19.1875 C66.75123047 19.85330078 66.56496094 20.51910156 66.37304688 21.20507812 C65.92392047 22.80581069 65.46327835 24.40330578 65 26 C56.60418341 25.2535188 48.28170584 24.09145976 39.94030762 22.9012146 C26.64522983 21.00735367 13.37207201 19.26804131 0 18 C0 12.06 0 6.12 0 0 Z " fill="#010101" transform="translate(249,308)"/>
<path d="M0 0 C22.77 0 45.54 0 69 0 C69 5.94 69 11.88 69 18 C66.9890625 18.08636719 64.978125 18.17273438 62.90625 18.26171875 C42.99130798 19.20152403 23.63048751 21.52540172 4 25 C3.32391731 22.14777615 2.65894885 19.29368707 2 16.4375 C1.80921875 15.63763672 1.6184375 14.83777344 1.421875 14.01367188 C1.24140625 13.22412109 1.0609375 12.43457031 0.875 11.62109375 C0.70742187 10.9036499 0.53984375 10.18620605 0.3671875 9.44702148 C-0.10045761 6.33052748 0 3.15138491 0 0 Z " fill="#010101" transform="translate(166,308)"/>
<path d="M0 0 C7.92 0 15.84 0 24 0 C25.96146576 5.12132052 27.92003747 10.24356802 29.87158203 15.36865234 C30.53530466 17.10918822 31.2006438 18.8491086 31.86767578 20.58837891 C32.83018306 23.09895469 33.7867149 25.61173987 34.7421875 28.125 C35.03809784 28.89303955 35.33400818 29.6610791 35.6388855 30.45239258 C37.45476919 35.25018487 38.84441194 40.00071773 40 45 C32.36868522 43.03662604 24.97427611 40.6668161 17.5625 38 C9.77889846 35.24008004 2.09997206 32.6722523 -6 31 C-5.28226717 24.64507388 -4.20684909 18.40411339 -3 12.125 C-2.82210938 11.17625 -2.64421875 10.2275 -2.4609375 9.25 C-2.28820312 8.34507812 -2.11546875 7.44015625 -1.9375 6.5078125 C-1.70353516 5.28022217 -1.70353516 5.28022217 -1.46484375 4.02783203 C-1 2 -1 2 0 0 Z " fill="#030303" transform="translate(336,308)"/>
<path d="M0 0 C5.61 0 11.22 0 17 0 C17 11.55 17 23.1 17 35 C0.17 35 -16.66 35 -34 35 C-34 29.39 -34 23.78 -34 18 C-22.78 18 -11.56 18 0 18 C0 12.06 0 6.12 0 0 Z " fill="#656565" transform="translate(397,260)"/>
<path d="M0 0 C16.83 0 33.66 0 51 0 C51 5.61 51 11.22 51 17 C39.78 17 28.56 17 17 17 C17 22.94 17 28.88 17 35 C11.39 35 5.78 35 0 35 C0 23.45 0 11.9 0 0 Z " fill="#656565" transform="translate(72,209)"/>
<path d="M0 0 C5.61 0 11.22 0 17 0 C17 5.61 17 11.22 17 17 C28.22 17 39.44 17 51 17 C51 22.61 51 28.22 51 34 C34.17 34 17.34 34 0 34 C0 22.78 0 11.56 0 0 Z " fill="#656565" transform="translate(72,261)"/>
<path d="M0 0 C16.83 0 33.66 0 51 0 C51 11.22 51 22.44 51 34 C45.39 34 39.78 34 34 34 C34 28.39 34 22.78 34 17 C22.78 17 11.56 17 0 17 C0 11.39 0 5.78 0 0 Z " fill="#656565" transform="translate(363,209)"/>
<path d="M0 0 C3.3 0 6.6 0 10 0 C11.02069948 16.67750035 11.11382833 33.29525448 11 50 C14.3 50 17.6 50 21 50 C21 50.99 21 51.98 21 53 C24.63 53 28.26 53 32 53 C32 52.01 32 51.02 32 50 C35.3 50 38.6 50 42 50 C42 50.99 42 51.98 42 53 C45.63 53 49.26 53 53 53 C53 52.01 53 51.02 53 50 C56.3 50 59.6 50 63 50 C63 52.97 63 55.94 63 59 C59.7 59 56.4 59 53 59 C52.67 62.63 52.34 66.26 52 70 C48.7 70 45.4 70 42 70 C42 66.37 42 62.74 42 59 C38.7 59 35.4 59 32 59 C31.67 62.63 31.34 66.26 31 70 C27.7 70 24.4 70 21 70 C21 66.37 21 62.74 21 59 C17.37 59 13.74 59 10 59 C9.06174672 54.30873358 9.07240898 50.38332585 9.4375 45.6875 C9.48970703 44.94693359 9.54191406 44.20636719 9.59570312 43.44335938 C9.72450152 41.62847291 9.86143262 39.81416675 10 38 C6.7 38 3.4 38 0 38 C0 25.46 0 12.92 0 0 Z " fill="#A2A2A2" transform="translate(284,224)"/>
<path d="M0 0 C3.3 0 6.6 0 10 0 C11.02069948 16.67750035 11.11382833 33.29525448 11 50 C14.3 50 17.6 50 21 50 C21 50.99 21 51.98 21 53 C24.63 53 28.26 53 32 53 C32 52.01 32 51.02 32 50 C35.3 50 38.6 50 42 50 C42 50.99 42 51.98 42 53 C44.62561109 53.08074203 47.24875676 53.1403623 49.875 53.1875 C50.62136719 53.21263672 51.36773437 53.23777344 52.13671875 53.26367188 C54.56221828 53.3298764 54.56221828 53.3298764 58 53 C58.66 52.01 59.32 51.02 60 50 C60.99 50 61.98 50 63 50 C63 52.97 63 55.94 63 59 C59.535 59.495 59.535 59.495 56 60 C55.67 61.32 55.34 62.64 55 64 C54.01 64 53.02 64 52 64 C52 65.65 52 67.3 52 69 C52.66 69 53.32 69 54 69 C54.33 68.34 54.66 67.68 55 67 C55 67.66 55 68.32 55 69 C55.99 69 56.98 69 58 69 C58.625 71.875 58.625 71.875 59 75 C58.34 75.66 57.68 76.32 57 77 C52.44444444 76.44444444 52.44444444 76.44444444 51 75 C50.95936168 73.33382885 50.957279 71.66611905 51 70 C48.03 70 45.06 70 42 70 C42 68.35 42 66.7 42 65 C40.68 64.67 39.36 64.34 38 64 C38.33 62.68 38.66 61.36 39 60 C36.69 59.67 34.38 59.34 32 59 C31.67 62.63 31.34 66.26 31 70 C27.7 70 24.4 70 21 70 C21 66.37 21 62.74 21 59 C17.37 59 13.74 59 10 59 C10 49.1 10 39.2 10 29 C6.7 29 3.4 29 0 29 C0 19.43 0 9.86 0 0 Z " fill="#C9C9C9" transform="translate(132,224)"/>
<path d="M0 0 C3.3 0 6.6 0 10 0 C10 6.93 10 13.86 10 21 C13.3 21 16.6 21 20 21 C20 14.07 20 7.14 20 0 C23.63 0 27.26 0 31 0 C31 6.93 31 13.86 31 21 C34.3 21 37.6 21 41 21 C41 14.07 41 7.14 41 0 C41.33 0 41.66 0 42 0 C42 6.93 42 13.86 42 21 C45.3 21 48.6 21 52 21 C52 23.64 52 26.28 52 29 C51.01 29 50.02 29 49 29 C48.34 30.32 47.68 31.64 47 33 C41.72 32.67 36.44 32.34 31 32 C31 31.01 31 30.02 31 29 C27.7 29 24.4 29 21 29 C21 29.99 21 30.98 21 32 C17.37 32 13.74 32 10 32 C10 31.01 10 30.02 10 29 C6.7 29 3.4 29 0 29 C0 19.43 0 9.86 0 0 Z " fill="#959595" transform="translate(143,245)"/>
<path d="M0 0 C2.625 0.9375 2.625 0.9375 5 2 C5 2.99 5 3.98 5 5 C8.3 5 11.6 5 15 5 C15 11.93 15 18.86 15 26 C11.7 26 8.4 26 5 26 C4.67 20.06 4.34 14.12 4 8 C4.02320313 9.45792969 4.04640625 10.91585937 4.0703125 12.41796875 C4.08907515 14.3411407 4.10727482 16.26431821 4.125 18.1875 C4.14175781 19.14720703 4.15851563 20.10691406 4.17578125 21.09570312 C4.18222656 22.02705078 4.18867188 22.95839844 4.1953125 23.91796875 C4.20578613 24.77156982 4.21625977 25.6251709 4.22705078 26.50463867 C3.97204194 29.30726815 3.15541422 31.44729419 2 34 C-1.3 34 -4.6 34 -8 34 C-8 38.29 -8 42.58 -8 47 C-11.3 47 -14.6 47 -18 47 C-18 40.07 -18 33.14 -18 26 C-14.7 26 -11.4 26 -8 26 C-8 19.07 -8 12.14 -8 5 C-6.35 5 -4.7 5 -3 5 C-2.87625 4.360625 -2.7525 3.72125 -2.625 3.0625 C-2.41875 2.381875 -2.2125 1.70125 -2 1 C-1.34 0.67 -0.68 0.34 0 0 Z " fill="#494949" transform="translate(203,219)"/>
<path d="M0 0 C3.63 0 7.26 0 11 0 C11 0.99 11 1.98 11 3 C14.63 3 18.26 3 22 3 C22 2.01 22 1.02 22 0 C25.3 0 28.6 0 32 0 C32 0.99 32 1.98 32 3 C35.63 3 39.26 3 43 3 C43 2.01 43 1.02 43 0 C46.3 0 49.6 0 53 0 C53 2.97 53 5.94 53 9 C49.7 9 46.4 9 43 9 C42.67 12.63 42.34 16.26 42 20 C38.7 20 35.4 20 32 20 C32 16.37 32 12.74 32 9 C28.7 9 25.4 9 22 9 C21.67 12.63 21.34 16.26 21 20 C17.7 20 14.4 20 11 20 C11 16.37 11 12.74 11 9 C7.37 9 3.74 9 0 9 C0 6.03 0 3.06 0 0 Z " fill="#C9C9C9" transform="translate(218,274)"/>
<path d="M0 0 C16.83 0 33.66 0 51 0 C49.173693 6.08768999 47.58305872 11.34187138 45 17 C39.7935639 16.35100256 35.25716779 14.7682925 30.390625 12.91015625 C29.58260437 12.60556992 28.77458374 12.30098358 27.94207764 11.98716736 C26.24339238 11.34516456 24.54575516 10.7003826 22.84912109 10.05297852 C20.24751536 9.06155315 17.64165463 8.08199502 15.03515625 7.10351562 C13.38254523 6.47726735 11.73019214 5.85033791 10.078125 5.22265625 C9.29794006 4.92988297 8.51775513 4.63710968 7.71392822 4.33546448 C2.23000731 2.23000731 2.23000731 2.23000731 0 0 Z " fill="#040404" transform="translate(362,308)"/>
<path d="M0 0 C1.48831242 0.00667405 2.97660807 0.01863442 4.46484375 0.03515625 C5.22345703 0.03966797 5.98207031 0.04417969 6.76367188 0.04882812 C8.64326246 0.06064945 10.52281274 0.07858547 12.40234375 0.09765625 C11.11245967 6.60570777 9.26459685 12.51785438 6.77734375 18.66015625 C6.4525 19.47806641 6.12765625 20.29597656 5.79296875 21.13867188 C5.00212579 23.12740931 4.20310156 25.11289024 3.40234375 27.09765625 C-0.37024658 26.53450146 -3.87115883 25.79022353 -7.47265625 24.53515625 C-8.25382812 24.26574219 -9.035 23.99632812 -9.83984375 23.71875 C-10.41992188 23.51378906 -11 23.30882812 -11.59765625 23.09765625 C-10.95458569 17.99328372 -9.43597552 13.55004511 -7.59765625 8.78515625 C-7.324375 8.05748047 -7.05109375 7.32980469 -6.76953125 6.58007812 C-4.31201338 0.11704705 -4.31201338 0.11704705 0 0 Z " fill="#030303" transform="translate(431.59765625,307.90234375)"/>
<path d="M0 0 C3.3 0 6.6 0 10 0 C10 7.26 10 14.52 10 22 C13.3 22 16.6 22 20 22 C20 25.3 20 28.6 20 32 C16.7 32 13.4 32 10 32 C10 31.01 10 30.02 10 29 C6.7 29 3.4 29 0 29 C0 19.43 0 9.86 0 0 Z " fill="#848484" transform="translate(143,245)"/>
<path d="M0 0 C3.3 0 6.6 0 10 0 C10 0.99 10 1.98 10 3 C13.63 3 17.26 3 21 3 C21 2.01 21 1.02 21 0 C24.3 0 27.6 0 31 0 C31 2.97 31 5.94 31 9 C27.7 9 24.4 9 21 9 C20.67 12.63 20.34 16.26 20 20 C16.7 20 13.4 20 10 20 C10 16.37 10 12.74 10 9 C6.7 9 3.4 9 0 9 C-0.33 9.66 -0.66 10.32 -1 11 C-1.125 3.375 -1.125 3.375 0 0 Z " fill="#C1C1C1" transform="translate(316,274)"/>
<path d="M0 0 C0.99 0 1.98 0 3 0 C3 2.97 3 5.94 3 9 C0.69 9.33 -1.62 9.66 -4 10 C-4.33 11.32 -4.66 12.64 -5 14 C-5.99 14 -6.98 14 -8 14 C-8 15.65 -8 17.3 -8 19 C-7.34 19 -6.68 19 -6 19 C-5.67 18.34 -5.34 17.68 -5 17 C-5 17.66 -5 18.32 -5 19 C-4.01 19 -3.02 19 -2 19 C-1.375 21.875 -1.375 21.875 -1 25 C-1.66 25.66 -2.32 26.32 -3 27 C-7.55555556 26.44444444 -7.55555556 26.44444444 -9 25 C-9.04063832 23.33382885 -9.042721 21.66611905 -9 20 C-11.97 20 -14.94 20 -18 20 C-18 18.35 -18 16.7 -18 15 C-19.32 14.67 -20.64 14.34 -22 14 C-21.67 12.68 -21.34 11.36 -21 10 C-20.01 10 -19.02 10 -18 10 C-18 7.69 -18 5.38 -18 3 C-16.86820313 3.03480469 -15.73640625 3.06960938 -14.5703125 3.10546875 C-13.08855647 3.13360336 -11.60678444 3.16090387 -10.125 3.1875 C-9.37863281 3.21263672 -8.63226563 3.23777344 -7.86328125 3.26367188 C-5.43778172 3.3298764 -5.43778172 3.3298764 -2 3 C-1.34 2.01 -0.68 1.02 0 0 Z " fill="#A1A1A1" transform="translate(192,274)"/>
<path d="M0 0 C5.28 0 10.56 0 16 0 C16 6.27 16 12.54 16 19 C10.72 19 5.44 19 0 19 C0 12.73 0 6.46 0 0 Z " fill="#030303" transform="translate(34,240)"/>
<path d="M0 0 C5.61 0 11.22 0 17 0 C17 5.61 17 11.22 17 17 C11.39 17 5.78 17 0 17 C0 11.39 0 5.78 0 0 Z " fill="#666666" transform="translate(89,244)"/>
<path d="M0 0 C5.61 0 11.22 0 17 0 C17 5.61 17 11.22 17 17 C11.39 17 5.78 17 0 17 C0 11.39 0 5.78 0 0 Z " fill="#666666" transform="translate(380,243)"/>
<path d="M0 0 C4.95 0 9.9 0 15 0 C15 6.27 15 12.54 15 19 C10.05 19 5.1 19 0 19 C0 12.73 0 6.46 0 0 Z " fill="#000000" transform="translate(437,240)"/>
<path d="M0 0 C3.3 0 6.6 0 10 0 C10 6.93 10 13.86 10 21 C6.7 21 3.4 21 0 21 C0 14.07 0 7.14 0 0 Z " fill="#494949" transform="translate(337,245)"/>
<path d="M0 0 C3.3 0 6.6 0 10 0 C10 6.93 10 13.86 10 21 C6.7 21 3.4 21 0 21 C0 14.07 0 7.14 0 0 Z " fill="#4B4B4B" transform="translate(316,245)"/>
<path d="M0 0 C3.3 0 6.6 0 10 0 C10 6.93 10 13.86 10 21 C6.7 21 3.4 21 0 21 C0 14.07 0 7.14 0 0 Z " fill="#484848" transform="translate(295,245)"/>
<path d="M0 0 C3.3 0 6.6 0 10 0 C10 6.93 10 13.86 10 21 C6.7 21 3.4 21 0 21 C0 14.07 0 7.14 0 0 Z " fill="#464646" transform="translate(261,245)"/>
<path d="M0 0 C3.3 0 6.6 0 10 0 C10 6.93 10 13.86 10 21 C6.7 21 3.4 21 0 21 C0 14.07 0 7.14 0 0 Z " fill="#4B4B4B" transform="translate(240,245)"/>
<path d="M0 0 C3.3 0 6.6 0 10 0 C10 6.93 10 13.86 10 21 C6.7 21 3.4 21 0 21 C0 14.07 0 7.14 0 0 Z " fill="#4B4B4B" transform="translate(164,245)"/>
<path d="M0 0 C3.3 0 6.6 0 10 0 C10 6.93 10 13.86 10 21 C6.7 21 3.4 21 0 21 C0 14.07 0 7.14 0 0 Z " fill="#494949" transform="translate(347,224)"/>
<path d="M0 0 C3.3 0 6.6 0 10 0 C10 6.93 10 13.86 10 21 C6.7 21 3.4 21 0 21 C0 14.07 0 7.14 0 0 Z " fill="#494949" transform="translate(284,224)"/>
<path d="M0 0 C3.3 0 6.6 0 10 0 C10 6.93 10 13.86 10 21 C6.7 21 3.4 21 0 21 C0 14.07 0 7.14 0 0 Z " fill="#494949" transform="translate(271,224)"/>
<path d="M0 0 C3.3 0 6.6 0 10 0 C10 6.93 10 13.86 10 21 C6.7 21 3.4 21 0 21 C0 14.07 0 7.14 0 0 Z " fill="#484848" transform="translate(208,224)"/>
<path d="M0 0 C3.3 0 6.6 0 10 0 C10 6.93 10 13.86 10 21 C6.7 21 3.4 21 0 21 C0 14.07 0 7.14 0 0 Z " fill="#444444" transform="translate(195,224)"/>
<path d="M0 0 C3.3 0 6.6 0 10 0 C10 6.93 10 13.86 10 21 C6.7 21 3.4 21 0 21 C0 14.07 0 7.14 0 0 Z " fill="#494949" transform="translate(132,224)"/>
<path d="M0 0 C0.33 0 0.66 0 1 0 C1 12.54 1 25.08 1 38 C-2.63 38 -6.26 38 -10 38 C-10 32.39 -10 26.78 -10 21 C-6.7 21 -3.4 21 0 21 C0 14.07 0 7.14 0 0 Z " fill="#C3C3C3" transform="translate(357,224)"/>
<path d="M0 0 C0.33 0 0.66 0 1 0 C1 12.54 1 25.08 1 38 C-2.63 38 -6.26 38 -10 38 C-10 32.39 -10 26.78 -10 21 C-6.7 21 -3.4 21 0 21 C0 14.07 0 7.14 0 0 Z " fill="#C3C3C3" transform="translate(281,224)"/>
<path d="M0 0 C3.63 0 7.26 0 11 0 C11 6.93 11 13.86 11 21 C10.67 19.68 10.34 18.36 10 17 C6.7 17 3.4 17 0 17 C0 11.39 0 5.78 0 0 Z " fill="#878787" transform="translate(284,245)"/>
<path d="M0 0 C2.97 0 5.94 0 9 0 C9 6.93 9 13.86 9 21 C6.03 21 3.06 21 0 21 C0 14.07 0 7.14 0 0 Z " fill="#494949" transform="translate(143,245)"/>
<path d="M0 0 C2.4375 2.1875 2.4375 2.1875 4 5 C3.93182826 7.86321294 3.37360729 9.39807715 1.875 11.8125 C-1.14223295 13.7234142 -3.53266903 13.43341637 -7 13 C-9 11.4375 -9 11.4375 -10 9 C-9.875 5.375 -9.875 5.375 -9 2 C-5.50434664 -0.33043558 -4.1134271 -0.58763244 0 0 Z " fill="#A6A6A6" transform="translate(289,268)"/>
<path d="M0 0 C2.625 0.9375 2.625 0.9375 5 2 C5.042721 3.66611905 5.04063832 5.33382885 5 7 C4.67 7.33 4.34 7.66 4 8 C3.93730507 9.5039297 3.94057295 11.01073103 3.97265625 12.515625 C3.98490234 13.43730469 3.99714844 14.35898438 4.00976562 15.30859375 C4.04464317 17.25398578 4.08363845 19.19930878 4.12695312 21.14453125 C4.23053469 29.90631281 4.23053469 29.90631281 2 34 C-1.3 34 -4.6 34 -8 34 C-8 31.36 -8 28.72 -8 26 C-4.7 26 -1.4 26 2 26 C2 19.07 2 12.14 2 5 C0.35 5 -1.3 5 -3 5 C-2.625 3.0625 -2.625 3.0625 -2 1 C-1.34 0.67 -0.68 0.34 0 0 Z " fill="#636363" transform="translate(203,219)"/>
<path d="M0 0 C5.625 -0.25 5.625 -0.25 9 2 C9.1875 5.125 9.1875 5.125 9 8 C9.66 8 10.32 8 11 8 C11.33 7.34 11.66 6.68 12 6 C12 6.66 12 7.32 12 8 C12.99 8 13.98 8 15 8 C15.625 10.875 15.625 10.875 16 14 C15.34 14.66 14.68 15.32 14 16 C9.44444444 15.44444444 9.44444444 15.44444444 8 14 C7.95936168 12.33382885 7.957279 10.66611905 8 9 C5.03 9 2.06 9 -1 9 C-0.67 6.03 -0.34 3.06 0 0 Z " fill="#C8C8C8" transform="translate(175,285)"/>
<path d="M0 0 C3.63 0 7.26 0 11 0 C11 4.29 11 8.58 11 13 C10.01 13 9.02 13 8 13 C6.989375 13.061875 5.97875 13.12375 4.9375 13.1875 C3.968125 13.125625 2.99875 13.06375 2 13 C-0.92332269 8.61501596 -0.1356502 5.2225328 0 0 Z " fill="#818181" transform="translate(208,245)"/>
<path d="M0 0 C0.33 0 0.66 0 1 0 C1 6.93 1 13.86 1 21 C4.3 21 7.6 21 11 21 C11 23.64 11 26.28 11 29 C4.375 30.125 4.375 30.125 1 29 C0.67 29.99 0.34 30.98 0 32 C0 28.7 0 25.4 0 22 C-3.3 22 -6.6 22 -10 22 C-10 21.67 -10 21.34 -10 21 C-6.7 21 -3.4 21 0 21 C0 14.07 0 7.14 0 0 Z " fill="#909090" transform="translate(260,245)"/>
<path d="M0 0 C0.33 0 0.66 0 1 0 C1 2.64 1 5.28 1 8 C4.3 8 7.6 8 11 8 C11 10.97 11 13.94 11 17 C7.37 17 3.74 17 0 17 C-0.86626993 12.66865037 -0.98617411 9.97131602 -0.5625 5.6875 C-0.46066406 4.61886719 -0.35882813 3.55023438 -0.25390625 2.44921875 C-0.17011719 1.64097656 -0.08632813 0.83273437 0 0 Z " fill="#C8C8C8" transform="translate(294,266)"/>
<path d="M0 0 C0.33 0 0.66 0 1 0 C1 3.96 1 7.92 1 12 C-2.63 12 -6.26 12 -10 12 C-10 9.03 -10 6.06 -10 3 C-6.7 3 -3.4 3 0 3 C0 2.01 0 1.02 0 0 Z " fill="#CBCBCB" transform="translate(205,250)"/>
<path d="M0 0 C3.63 0 7.26 0 11 0 C11 6.93 11 13.86 11 21 C10.67 21 10.34 21 10 21 C10 16.71 10 12.42 10 8 C6.7 8 3.4 8 0 8 C0 5.36 0 2.72 0 0 Z " fill="#878787" transform="translate(132,245)"/>
<path d="M0 0 C0.33 0 0.66 0 1 0 C1.02505615 0.86802246 1.0501123 1.73604492 1.07592773 2.63037109 C1.17099484 5.84713163 1.27023203 9.06372849 1.37231445 12.28027344 C1.41565846 13.6731259 1.45733396 15.06603131 1.49731445 16.45898438 C1.55502932 18.45976651 1.61921869 20.46035859 1.68359375 22.4609375 C1.72025146 23.66540527 1.75690918 24.86987305 1.79467773 26.11083984 C1.81052987 28.93996367 1.81052987 28.93996367 3 31 C7.14093698 31.20970559 7.14093698 31.20970559 11 30 C11 31.98 11 33.96 11 36 C7.37 36 3.74 36 0 36 C-0.6380408 26.99906727 -1.10310611 18.02575467 -1.125 9 C-1.12951172 8.21705566 -1.13402344 7.43411133 -1.13867188 6.62744141 C-1.12394681 1.12394681 -1.12394681 1.12394681 0 0 Z " fill="#E8E8E8" transform="translate(207,226)"/>
<path d="M0 0 C3.3 0 6.6 0 10 0 C10 3.3 10 6.6 10 10 C6.7 10 3.4 10 0 10 C0 6.7 0 3.4 0 0 Z " fill="#494949" transform="translate(326,267)"/>
<path d="M0 0 C3.3 0 6.6 0 10 0 C10 3.3 10 6.6 10 10 C6.7 10 3.4 10 0 10 C0 6.7 0 3.4 0 0 Z " fill="#464646" transform="translate(305,267)"/>
<path d="M0 0 C3.3 0 6.6 0 10 0 C10 3.3 10 6.6 10 10 C6.7 10 3.4 10 0 10 C0 6.7 0 3.4 0 0 Z " fill="#494949" transform="translate(250,267)"/>
<path d="M0 0 C3.3 0 6.6 0 10 0 C10 3.3 10 6.6 10 10 C6.7 10 3.4 10 0 10 C0 6.7 0 3.4 0 0 Z " fill="#484848" transform="translate(229,267)"/>
<path d="M0 0 C3.3 0 6.6 0 10 0 C10 3.3 10 6.6 10 10 C6.7 10 3.4 10 0 10 C0 6.7 0 3.4 0 0 Z " fill="#454545" transform="translate(174,267)"/>
<path d="M0 0 C3.3 0 6.6 0 10 0 C10 3.3 10 6.6 10 10 C6.7 10 3.4 10 0 10 C0 6.7 0 3.4 0 0 Z " fill="#494949" transform="translate(153,267)"/>
<path d="M0 0 C3.3 0 6.6 0 10 0 C10 2.97 10 5.94 10 9 C6.7 9 3.4 9 0 9 C-0.33 9.66 -0.66 10.32 -1 11 C-1.125 3.375 -1.125 3.375 0 0 Z " fill="#C9C9C9" transform="translate(337,274)"/>
<path d="M0 0 C3.3 0 6.6 0 10 0 C10 2.97 10 5.94 10 9 C6.7 9 3.4 9 0 9 C-0.33 9.66 -0.66 10.32 -1 11 C-1.125 3.375 -1.125 3.375 0 0 Z " fill="#C9C9C9" transform="translate(164,274)"/>
<path d="M0 0 C3.3 0 6.6 0 10 0 C10 2.97 10 5.94 10 9 C6.7 9 3.4 9 0 9 C-0.33 9.66 -0.66 10.32 -1 11 C-1.125 3.375 -1.125 3.375 0 0 Z " fill="#C8C8C8" transform="translate(261,274)"/>
<path d="M0 0 C3.63 0 7.26 0 11 0 C10.67 2.97 10.34 5.94 10 9 C6.7 9 3.4 9 0 9 C0 6.03 0 3.06 0 0 Z " fill="#CACACA" transform="translate(218,274)"/>
<path d="M0 0 C3.3 0 6.6 0 10 0 C10 2.97 10 5.94 10 9 C6.7 9 3.4 9 0 9 C0 6.03 0 3.06 0 0 Z " fill="#C9C9C9" transform="translate(326,285)"/>
<path d="M0 0 C3.3 0 6.6 0 10 0 C10 2.97 10 5.94 10 9 C6.7 9 3.4 9 0 9 C0 6.03 0 3.06 0 0 Z " fill="#C9C9C9" transform="translate(250,285)"/>
<path d="M0 0 C3.3 0 6.6 0 10 0 C10 2.97 10 5.94 10 9 C6.7 9 3.4 9 0 9 C0 6.03 0 3.06 0 0 Z " fill="#C9C9C9" transform="translate(153,285)"/>
<path d="M0 0 C1.37478516 0.01740234 1.37478516 0.01740234 2.77734375 0.03515625 C3.69644531 0.04417969 4.61554688 0.05320312 5.5625 0.0625 C6.27277344 0.07410156 6.98304688 0.08570313 7.71484375 0.09765625 C7.71484375 2.73765625 7.71484375 5.37765625 7.71484375 8.09765625 C4.41484375 8.09765625 1.11484375 8.09765625 -2.28515625 8.09765625 C-2.61515625 9.08765625 -2.94515625 10.07765625 -3.28515625 11.09765625 C-3.31203776 9.45191059 -3.33149748 7.80604212 -3.34765625 6.16015625 C-3.35925781 5.24363281 -3.37085938 4.32710938 -3.3828125 3.3828125 C-3.25079574 0.2936203 -3.0891922 0.13201676 0 0 Z " fill="#8A8A8A" transform="translate(339.28515625,265.90234375)"/>
<path d="M0 0 C3.3 0 6.6 0 10 0 C10 2.97 10 5.94 10 9 C6.7 9 3.4 9 0 9 C0 6.03 0 3.06 0 0 Z " fill="#C1C1C1" transform="translate(284,253)"/>
<path d="M0 0 C3.3 0 6.6 0 10 0 C10 2.97 10 5.94 10 9 C6.7 9 3.4 9 0 9 C0 6.03 0 3.06 0 0 Z " fill="#C9C9C9" transform="translate(132,253)"/>
<path d="M0 0 C3.3 0 6.6 0 10 0 C10 2.97 10 5.94 10 9 C6.7 9 3.4 9 0 9 C0 6.03 0 3.06 0 0 Z " fill="#C9C9C9" transform="translate(229,285)"/>
<path d="M0 0 C3.3 0 6.6 0 10 0 C10 2.64 10 5.28 10 8 C2.25 9.125 2.25 9.125 0 8 C0 5.36 0 2.72 0 0 Z " fill="#898989" transform="translate(240,266)"/>
<path d="M0 0 C3.3 0 6.6 0 10 0 C10 2.64 10 5.28 10 8 C6.7 8 3.4 8 0 8 C0 5.36 0 2.72 0 0 Z " fill="#9F9F9F" transform="translate(326,277)"/>
<path d="M0 0 C3.3 0 6.6 0 10 0 C10 2.64 10 5.28 10 8 C6.7 8 3.4 8 0 8 C0 5.36 0 2.72 0 0 Z " fill="#9F9F9F" transform="translate(250,277)"/>
<path d="M0 0 C3.3 0 6.6 0 10 0 C10 2.64 10 5.28 10 8 C6.7 8 3.4 8 0 8 C0 5.36 0 2.72 0 0 Z " fill="#9F9F9F" transform="translate(153,277)"/>
<path d="M0 0 C3.3 0 6.6 0 10 0 C10 2.64 10 5.28 10 8 C6.7 8 3.4 8 0 8 C0 5.36 0 2.72 0 0 Z " fill="#8A8A8A" transform="translate(295,266)"/>
<path d="M0 0 C3.3 0 6.6 0 10 0 C10 2.64 10 5.28 10 8 C6.7 8 3.4 8 0 8 C0 5.36 0 2.72 0 0 Z " fill="#898989" transform="translate(347,245)"/>
<path d="M0 0 C3.3 0 6.6 0 10 0 C10 2.64 10 5.28 10 8 C6.7 8 3.4 8 0 8 C0 5.36 0 2.72 0 0 Z " fill="#898989" transform="translate(271,245)"/>
<path d="M0 0 C1.65 0 3.3 0 5 0 C5.33 0.66 5.66 1.32 6 2 C6.99 2.33 7.98 2.66 9 3 C9.33 2.01 9.66 1.02 10 0 C10 2.97 10 5.94 10 9 C6.7 9 3.4 9 0 9 C0 6.03 0 3.06 0 0 Z " fill="#C8C8C8" transform="translate(305,285)"/>
<path d="M0 0 C0.99 0 1.98 0 3 0 C3 2.97 3 5.94 3 9 C1.35425434 9.02688151 -0.29161413 9.04634123 -1.9375 9.0625 C-2.85402344 9.07410156 -3.77054688 9.08570313 -4.71484375 9.09765625 C-7 9 -7 9 -8 8 C-8.04063832 6.33382885 -8.042721 4.66611905 -8 3 C-6.576875 3.0928125 -6.576875 3.0928125 -5.125 3.1875 C-3.578125 3.0946875 -3.578125 3.0946875 -2 3 C-1.34 2.01 -0.68 1.02 0 0 Z " fill="#C5C5C5" transform="translate(192,274)"/>
<path d="M0 0 C2.4375 1.25 2.4375 1.25 3.4375 4.25 C2 6.4375 2 6.4375 0.4375 8.25 C-2.5325 7.755 -2.5325 7.755 -5.5625 7.25 C-5.30688677 4.9068787 -4.96979228 2.57156597 -4.5625 0.25 C-2.5625 -0.75 -2.5625 -0.75 0 0 Z " fill="#5B5B5B" transform="translate(189.5625,269.75)"/>
<path d="M0 0 C0.33 0.66 0.66 1.32 1 2 C1.99 2 2.98 2 4 2 C4.625 4.875 4.625 4.875 5 8 C4.34 8.66 3.68 9.32 3 10 C-1.55555556 9.44444444 -1.55555556 9.44444444 -3 8 C-3.04063832 6.33382885 -3.042721 4.66611905 -3 3 C-2.01 2.67 -1.02 2.34 0 2 C0 1.34 0 0.68 0 0 Z " fill="#A6A6A6" transform="translate(186,291)"/>
<path d="M0 0 C1.2065625 0.0309375 1.2065625 0.0309375 2.4375 0.0625 C3.5625 2.375 3.5625 2.375 4.4375 5.0625 C3.4475 6.5475 3.4475 6.5475 2.4375 8.0625 C-0.0625 8.4375 -0.0625 8.4375 -2.5625 8.0625 C-4.5625 5.0625 -4.5625 5.0625 -4.25 2.9375 C-3.2163408 0.11842946 -3.11381427 0.07594669 0 0 Z " fill="#6D6D6D" transform="translate(232.5625,277.9375)"/>
<path d="M0 0 C1.2065625 0.0309375 1.2065625 0.0309375 2.4375 0.0625 C3.5625 2.375 3.5625 2.375 4.4375 5.0625 C3.4475 6.5475 3.4475 6.5475 2.4375 8.0625 C-0.0625 8.375 -0.0625 8.375 -2.5625 8.0625 C-3.2225 7.4025 -3.8825 6.7425 -4.5625 6.0625 C-3.83457637 0.09352625 -3.83457637 0.09352625 0 0 Z " fill="#A6A6A6" transform="translate(254.5625,237.9375)"/>
<path d="M0 0 C2.625 0.9375 2.625 0.9375 5 2 C5.042721 3.66611905 5.04063832 5.33382885 5 7 C4.67 7.33 4.34 7.66 4 8 C3.76298761 10.85877909 3.57780818 13.69883297 3.4375 16.5625 C3.39431641 17.36880859 3.35113281 18.17511719 3.30664062 19.00585938 C3.20024738 21.00368805 3.09959112 23.0018207 3 25 C2.67 25 2.34 25 2 25 C2 18.4 2 11.8 2 5 C0.35 5 -1.3 5 -3 5 C-2.625 3.0625 -2.625 3.0625 -2 1 C-1.34 0.67 -0.68 0.34 0 0 Z " fill="#9E9E9E" transform="translate(203,219)"/>
<path d="M0 0 C2.5625 0.1875 2.5625 0.1875 4.5625 2.1875 C4.1875 4.8125 4.1875 4.8125 3.5625 7.1875 C1.1875 7.8125 1.1875 7.8125 -1.4375 8.1875 C-3.4375 6.1875 -3.4375 6.1875 -3.625 3.625 C-3.37291261 0.34786389 -3.27713611 0.25208739 0 0 Z " fill="#A5A5A5" transform="translate(233.4375,254.8125)"/>
<path d="M0 0 C3.63 0 7.26 0 11 0 C11 2.64 11 5.28 11 8 C10.2575 7.319375 9.515 6.63875 8.75 5.9375 C6.26122464 3.7576886 6.26122464 3.7576886 3.8125 4.125 C1.81266959 4.96774898 1.81266959 4.96774898 0 7 C0 4.69 0 2.38 0 0 Z " fill="#868686" transform="translate(208,245)"/>
<path d="M0 0 C2.625 0.375 2.625 0.375 5 1 C5.625 3.375 5.625 3.375 6 6 C5.34 6.66 4.68 7.32 4 8 C1.375 7.625 1.375 7.625 -1 7 C-1.625 4.625 -1.625 4.625 -2 2 C-1.34 1.34 -0.68 0.68 0 0 Z " fill="#A5A5A5" transform="translate(254,215)"/>
<path d="M0 0 C3.3 0 6.6 0 10 0 C10 2.64 10 5.28 10 8 C7 7 7 7 5.5625 5.4375 C3.86323949 3.54862898 3.86323949 3.54862898 0 4 C0 2.68 0 1.36 0 0 Z " fill="#888888" transform="translate(185,266)"/>
<path d="M0 0 C0.66 0.66 1.32 1.32 2 2 C6.14509433 2.28602162 6.14509433 2.28602162 10 1 C10 2.98 10 4.96 10 7 C6.7 7 3.4 7 0 7 C0 4.69 0 2.38 0 0 Z " fill="#C6C6C6" transform="translate(208,255)"/>
<path d="M0 0 C0.99 0 1.98 0 3 0 C3.33 1.65 3.66 3.3 4 5 C5.98 5 7.96 5 10 5 C10 5.99 10 6.98 10 8 C6.7 8 3.4 8 0 8 C0 5.36 0 2.72 0 0 Z " fill="#898989" transform="translate(195,245)"/>
<path d="M0 0 C4.29 0 8.58 0 13 0 C12.67 0.99 12.34 1.98 12 3 C11.05125 2.814375 10.1025 2.62875 9.125 2.4375 C6.10131207 1.71313368 6.10131207 1.71313368 4 3 C4 3.66 4 4.32 4 5 C2.35 4.67 0.7 4.34 -1 4 C-0.67 2.68 -0.34 1.36 0 0 Z " fill="#898989" transform="translate(171,284)"/>
<path d="M0 0 C2.4375 1.25 2.4375 1.25 3.4375 4.25 C0.1375 4.25 -3.1625 4.25 -6.5625 4.25 C-3.87101064 -1.13297872 -3.87101064 -1.13297872 0 0 Z " fill="#585858" transform="translate(214.5625,248.75)"/>
<path d="M0 0 C3.3 0 6.6 0 10 0 C10 2.64 10 5.28 10 8 C9.01 8 8.02 8 7 8 C6.67 6.02 6.34 4.04 6 2 C4.02 2 2.04 2 0 2 C0 1.34 0 0.68 0 0 Z " fill="#A0A0A0" transform="translate(229,277)"/>
<path d="M0 0 C2.31 0 4.62 0 7 0 C6.34 1.32 5.68 2.64 5 4 C2.03 3.505 2.03 3.505 -1 3 C-0.67 2.01 -0.34 1.02 0 0 Z " fill="#848484" transform="translate(185,274)"/>
<path d="M0 0 C0.33 0.66 0.66 1.32 1 2 C3.02463255 2.65213292 3.02463255 2.65213292 5 3 C4.67 3.99 4.34 4.98 4 6 C2.68 5.67 1.36 5.34 0 5 C0 4.34 0 3.68 0 3 C-1.65 3 -3.3 3 -5 3 C-4.67 2.34 -4.34 1.68 -4 1 C-2.02 1.495 -2.02 1.495 0 2 C0 1.34 0 0.68 0 0 Z " fill="#808080" transform="translate(310,282)"/>
<path d="M0 0 C-0.66 1.32 -1.32 2.64 -2 4 C-2.99 3.67 -3.98 3.34 -5 3 C-5 2.34 -5 1.68 -5 1 C-5.66 0.67 -6.32 0.34 -7 0 C-4.3333581 -1.33332095 -2.83319697 -0.67102033 0 0 Z " fill="#A9A9A9" transform="translate(269,232)"/>
<path d="M0 0 C1.98 0.495 1.98 0.495 4 1 C3.67 2.32 3.34 3.64 3 5 C1.68 4.67 0.36 4.34 -1 4 C-0.67 2.68 -0.34 1.36 0 0 Z " fill="#A5A5A5" transform="translate(197,285)"/>
<path d="M0 0 C1.32 0.66 2.64 1.32 4 2 C3.67 2.99 3.34 3.98 3 5 C1.68 5 0.36 5 -1 5 C-1.33 4.01 -1.66 3.02 -2 2 C-1.34 1.34 -0.68 0.68 0 0 Z " fill="#626262" transform="translate(243,270)"/>
<path d="M0 0 C0.99 0 1.98 0 3 0 C3.33 0.99 3.66 1.98 4 3 C3.01 3.99 2.02 4.98 1 6 C0.34 5.67 -0.32 5.34 -1 5 C-0.67 3.35 -0.34 1.7 0 0 Z " fill="#303030" transform="translate(230,268)"/>
<path d="M0 0 C1.98 0.495 1.98 0.495 4 1 C3.67 2.32 3.34 3.64 3 5 C1.68 4.67 0.36 4.34 -1 4 C-0.67 2.68 -0.34 1.36 0 0 Z " fill="#2F2F2F" transform="translate(213,235)"/>
<path d="M0 0 C1.98 0.495 1.98 0.495 4 1 C3.67 2.32 3.34 3.64 3 5 C1.68 4.67 0.36 4.34 -1 4 C-0.67 2.68 -0.34 1.36 0 0 Z " fill="#A5A5A5" transform="translate(187,234)"/>
<path d="M0 0 C2.475 0.495 2.475 0.495 5 1 C4.34 2.32 3.68 3.64 3 5 C2.01 4.67 1.02 4.34 0 4 C0 2.68 0 1.36 0 0 Z " fill="#2F2F2F" transform="translate(199,233)"/>
<path d="M0 0 C2.475 0.495 2.475 0.495 5 1 C4.34 2.32 3.68 3.64 3 5 C2.01 4.67 1.02 4.34 0 4 C0 2.68 0 1.36 0 0 Z " fill="#A5A5A5" transform="translate(238,230)"/>
<path d="M0 0 C1.32 0.66 2.64 1.32 4 2 C3.67 2.99 3.34 3.98 3 5 C1.68 5 0.36 5 -1 5 C-0.67 3.35 -0.34 1.7 0 0 Z " fill="#A5A5A5" transform="translate(252,228)"/>
<path d="M0 0 C2.31 0 4.62 0 7 0 C6.67 0.99 6.34 1.98 6 3 C4.35 3 2.7 3 1 3 C0.67 2.01 0.34 1.02 0 0 Z " fill="#676767" transform="translate(229,283)"/>
<path d="M0 0 C0.99 0 1.98 0 3 0 C3.33 1.65 3.66 3.3 4 5 C2.35 4.67 0.7 4.34 -1 4 C-0.67 2.68 -0.34 1.36 0 0 Z " fill="#A6A6A6" transform="translate(171,284)"/>
</svg>
